<svg width="128" height="128" viewBox="0 0 141 117" fill="none" xmlns="http://www.w3.org/2000/svg">
<path d="M83.4562 0.714804C87.0051 1.77267 89.4514 4.00174 90.4506 7.21311C91.5876 10.689 90.7263 14.2781 88.1421 16.9984C86.6261 18.5851 86.4883 18.8874 86.4883 20.512C86.4883 22.7033 87.1429 24.2145 89.0379 26.4058L90.4506 28.0681L88.6589 27.8415C86.0403 27.5014 83.3184 25.9524 80.7687 23.27C78.6324 21.0409 78.3912 20.8898 76.1861 20.512C67.1588 18.963 63.0931 11.1423 67.8824 4.56845C70.7422 0.563681 77.392 -1.0609 83.4562 0.714804ZM82.8704 10.3867C82.8704 11.8224 82.9393 11.8979 84.0075 12.0113C84.9378 12.1246 85.1789 11.9735 85.4546 11.1423C85.9025 9.89555 85.9025 9.97111 85.2479 9.25328C84.9378 8.91325 84.2831 8.68657 83.7663 8.76213C82.9738 8.87547 82.8704 9.02659 82.8704 10.3867ZM76.9097 9.13993C76.6685 9.4044 76.4962 9.93333 76.4962 10.3867C76.4962 11.4823 77.1509 12.0868 78.2879 12.0868C79.0114 12.0868 79.356 11.8602 79.5972 11.1045C80.0451 9.89555 80.0451 9.97112 79.3904 9.29106C78.7703 8.57322 77.4954 8.49766 76.9097 9.13993ZM71.0523 9.13993C70.8111 9.4044 70.6388 9.93333 70.6388 10.3867C70.6388 12.238 72.9818 12.8047 73.6709 11.1423C74.1877 9.93333 74.1877 9.97112 73.533 9.29106C72.9128 8.57322 71.638 8.49766 71.0523 9.13993Z" fill="#4db4f8"/>
<path d="M60.5781 22.0466C56.142 23.1044 53.0841 25.3335 51.8351 28.5449C50.4138 32.0207 51.4905 35.6099 54.7207 38.3301C56.6157 39.9169 56.788 40.2192 56.788 41.8437C56.788 44.035 55.9697 45.5463 53.6009 47.7375L51.8351 49.3999L54.0747 49.1732C57.3479 48.8332 60.7504 47.2842 63.9375 44.6017C66.6078 42.3727 66.9093 42.2215 69.6657 41.8437C80.9498 40.2947 86.032 32.4741 80.0454 25.9002C76.4706 21.8954 68.1583 20.2709 60.5781 22.0466ZM61.3103 31.7185C61.3103 33.1541 61.2242 33.2297 59.889 33.343C58.7261 33.4564 58.4247 33.3053 58.0801 32.4741C57.5202 31.2273 57.5202 31.3029 58.3385 30.585C58.7261 30.245 59.5445 30.0183 60.1905 30.0939C61.1811 30.2072 61.3103 30.3583 61.3103 31.7185ZM68.7613 30.4717C69.0627 30.7362 69.2781 31.2651 69.2781 31.7185C69.2781 32.8141 68.4598 33.4186 67.0385 33.4186C66.134 33.4186 65.7033 33.1919 65.4019 32.4363C64.842 31.2273 64.842 31.3029 65.6603 30.6228C66.4355 29.905 68.0291 29.8294 68.7613 30.4717ZM76.083 30.4717C76.3845 30.7362 76.5998 31.2651 76.5998 31.7185C76.5998 33.5697 73.6711 34.1364 72.8098 32.4741C72.1637 31.2651 72.1637 31.3029 72.982 30.6228C73.7573 29.905 75.3508 29.8294 76.083 30.4717Z" fill="#589ecc"/>
<path d="M92.8634 6.2088C90.608 10.368 91.5017 16.8126 94.8635 20.2862C96.0124 21.4289 96.0124 21.4746 95.4167 23.8513C94.9911 25.451 94.906 27.3707 95.0762 29.6559C95.289 32.8097 95.2039 33.4495 93.7996 37.6088C91.8421 43.5048 91.8421 44.1447 94.0124 45.1046C95.2465 45.653 95.7997 46.2015 95.9699 47.0242C96.055 47.6641 96.438 48.761 96.7784 49.4466C97.1189 50.1779 97.4167 51.5491 97.4167 52.5089C97.4167 54.1086 97.1614 54.52 94.1826 57.3995C92.3953 59.0906 89.7995 61.3759 88.3526 62.4728C86.9058 63.524 85.6291 64.6667 85.4589 64.9866C85.3313 65.3066 84.5227 68.506 83.6716 72.1625C82.3099 77.9214 81.9269 80.8466 80.8205 94.1013C80.097 102.511 79.3736 111.104 79.246 113.206L78.9906 117L80.6503 116.726C92.0123 114.578 98.9913 111.927 107.545 106.488C108.779 105.711 109.885 105.071 110.013 105.071C110.524 105.071 118.013 98.6719 121.375 95.3354C128.311 88.5252 134.992 78.2871 138.524 69.1459C139.546 66.4492 140.312 64.1639 140.269 64.0725C139.971 63.7983 134.652 65.7179 131.843 67.0891C125.333 70.2885 117.205 78.1042 112.481 85.7828C109.587 90.3991 109.332 90.3991 109.332 85.8285C109.332 77.2358 115.034 70.2885 128.056 62.9299C129.588 62.0615 131.673 61.0102 132.652 60.5989L134.439 59.8219L133.546 57.4452C130.95 50.5436 130.95 47.9383 133.588 39.7113C137.673 26.8222 137.631 22.0231 133.333 17.361C132.099 16.0356 130.95 14.573 130.822 14.1159C130.184 11.922 128.013 9.59104 125.333 8.17416C121.503 6.11739 117.375 5.88885 110.396 7.26004C101.715 8.95116 97.97 8.49409 95.5443 5.38609C94.9486 4.6548 94.3954 4.06062 94.2677 4.06062C94.14 4.06062 93.5017 5.02045 92.8634 6.2088ZM113.162 29.7017C114.183 33.7695 115.29 37.1974 115.588 37.2888C115.885 37.426 116.566 37.426 117.119 37.2431C117.971 37.0146 118.056 36.7861 117.928 35.1864C117.8 33.7238 117.971 33.1296 118.864 32.2155C120.311 30.6158 121.843 30.7072 123.418 32.3526C125.758 34.8664 124.652 39.1171 121.29 40.6254C120.141 41.1281 120.056 41.3567 120.226 42.6364C120.652 45.0589 122.907 49.6294 124.439 51.092C125.247 51.8233 126.567 52.6003 127.375 52.7831C128.694 53.0117 128.95 53.2859 129.588 55.3427C129.971 56.5767 130.184 57.6737 130.141 57.7194C130.056 57.8108 128.269 58.8163 126.141 59.959C124.056 61.1016 120.779 63.2041 118.907 64.621C117.034 66.0836 115.247 67.2719 114.907 67.3176C114.481 67.3633 113.885 66.0836 113.162 63.4783L112.013 59.5933L113.758 57.4909C114.736 56.3025 115.843 54.7485 116.268 53.9715L117.034 52.5546L115.205 53.423C111.162 55.297 102.396 56.4853 101.076 55.297C100.608 54.8856 100.396 53.9258 100.396 52.4632C100.396 50.5436 100.523 50.2236 101.545 49.6751C103.332 48.761 103.332 47.8012 101.587 48.1669C99.6296 48.5782 98.6934 47.5727 98.6934 45.196C98.6934 43.5048 98.6083 43.4134 97.204 43.0935C96.3954 42.9564 95.5869 42.6364 95.5018 42.4079C95.3741 42.2251 95.9273 40.3054 96.7784 38.1572C98.1827 34.5465 98.2678 33.998 98.1827 29.7931C98.0551 23.1657 98.0125 23.2571 102.225 23.5313C104.523 23.6685 106.523 23.5313 108.055 23.12C109.332 22.7543 110.609 22.4344 110.821 22.3887C111.077 22.343 112.141 25.6795 113.162 29.7017ZM104.651 58.9077L108.651 59.1363L110.055 63.7069C110.821 66.2207 111.417 68.8259 111.46 69.5115C111.46 70.3799 110.651 71.8882 108.779 74.3564C105.077 79.2926 103.97 81.4865 99.7572 92.7301C97.7146 98.1234 95.8848 102.831 95.7146 103.197C95.3316 103.974 94.8209 101.643 93.3741 91.9988C91.757 81.3037 91.7144 81.6693 95.4592 77.8757C97.4167 75.8647 99.0338 73.7165 99.7572 72.1625C100.396 70.7913 101.502 68.9174 102.14 68.0032C102.821 67.0891 103.374 65.9922 103.374 65.5808C103.374 64.5296 102.183 64.1639 100.779 64.7124C99.7572 65.1238 99.5445 65.0323 98.7359 63.8897C98.2253 63.1584 97.204 62.2443 96.4805 61.8329L95.1188 61.0559L96.9061 59.2734C98.5232 57.6737 98.7785 57.5366 99.6296 58.085C100.183 58.405 102.438 58.7706 104.651 58.9077ZM95.289 65.5351C96.0124 65.9465 96.6508 66.7235 96.7784 67.3633C96.9061 68.0032 97.0763 69.0088 97.204 69.6029C97.4167 70.7913 95.9273 73.2594 95.2465 72.8481C95.0337 72.6652 94.8635 71.8882 94.8635 71.0655C94.8635 70.2885 94.6507 69.3744 94.3528 69.0545C93.6719 68.3232 91.374 68.3689 90.4378 69.1002C89.4165 69.9229 89.7144 71.4769 90.9059 71.4312C92.7783 71.3855 92.523 74.9962 90.4378 78.2871C89.842 79.2469 89.3314 80.481 89.3314 81.0294C89.3314 82.7205 88.7356 83.1776 86.7356 83.0405L84.9057 82.9034L85.0334 80.4352C85.1185 78.1957 87.1185 69.6486 88.0547 67.2262C88.9058 65.1238 92.906 64.2096 95.289 65.5351Z" fill="#2c2c2c"/>
<path d="M99.97 28.1476C100.013 29.1989 100.906 29.5645 103.715 29.7474C105.374 29.7931 106.779 29.7474 106.779 29.6102C106.779 29.4274 106.013 28.9704 105.077 28.559C103.332 27.8277 99.97 27.5535 99.97 28.1476Z" fill="black"/>
<path d="M100.991 32.5812C100.523 33.8609 101.034 34.9122 102.055 34.9122C103.247 34.9122 104.055 33.7695 103.672 32.6726C103.332 31.7585 101.289 31.7128 100.991 32.5812Z" fill="#000000"/>
<path d="M23.7974 6.84888C20.3931 7.44305 15.4993 10.1854 13.2865 12.6992C12.2652 13.8419 10.6481 16.4928 9.66933 18.5953C7.96714 22.2518 7.88204 22.5717 7.71182 27.5537C7.5416 32.4442 7.45649 32.8099 6.52029 33.3583C4.77555 34.3181 1.62652 39.163 0.775428 42.0882C-0.71398 47.1615 -0.0331078 54.9772 2.60527 63.8899L3.62658 67.3178L5.15855 65.4896C7.5416 62.7015 8.26503 61.6503 9.71188 58.588C11.4566 54.7944 12.3503 50.6352 12.4354 45.4247C12.4779 43.0937 12.6481 41.2654 12.7758 41.3569C13.1162 41.5397 14.3078 46.2474 14.6057 48.6241C14.7759 49.6296 14.6057 52.2349 14.2652 54.4288C13.4567 59.7764 11.329 64.1184 7.66926 67.9577L4.90322 70.8829L6.47774 74.2651L8.05225 77.6931L9.24378 76.779C9.8821 76.2305 11.6268 74.8136 13.1588 73.5338C16.6483 70.6544 19.7122 69.3746 23.7974 69.1004C26.2656 68.9175 27.5422 69.0547 29.5423 69.786C30.9466 70.2887 32.0956 70.7001 32.1381 70.6544C32.1381 70.6087 32.4786 69.009 32.819 67.0893C33.202 65.1697 33.968 62.3816 34.5212 60.919C35.3723 58.588 35.6702 58.2224 36.5638 58.3138C37.1596 58.3595 39.2022 58.4966 41.1171 58.5423L44.5641 58.6794L46.4365 60.6905C48.1386 62.5644 48.2237 62.7015 47.4578 63.2043C46.2662 63.9356 44.8194 65.4896 44.5641 66.2666C44.3938 66.8151 44.2236 66.7694 43.5002 66.0838C42.4363 65.0782 40.9895 65.0782 40.4363 66.0838C40.1384 66.7237 40.3937 67.3635 41.4576 69.009C42.2661 70.1516 43.33 72.117 43.7981 73.351C44.3513 74.7222 45.9258 76.9618 47.8833 79.0643C50.9898 82.5379 51.2026 82.9493 51.0323 85.6459C50.9472 87.6113 48.4791 103.837 48.2663 104.111C48.0535 104.34 48.0961 104.477 43.8406 93.1874C42.1384 88.7996 40.3086 84.3661 39.7554 83.3149C38.0958 80.2983 35.2872 77.556 32.0956 75.8191C29.3721 74.3108 28.904 74.2194 25.0741 74.2194C21.4569 74.2194 20.7761 74.3565 18.4781 75.5449C16.1376 76.779 11.0311 81.3953 11.0311 82.2637C11.0311 83.1778 18.0951 91.999 21.5846 95.427C28.904 102.649 37.6277 108.545 46.7769 112.43C50.8196 114.121 63.8838 117.503 64.3945 116.909C64.4796 116.817 63.8413 108.179 62.9051 97.758C61.6284 82.9493 61.0752 77.8759 60.2241 74.6765C59.6284 72.3912 58.9475 69.6945 58.6922 68.6433C58.3092 66.9979 57.756 66.3123 55.1601 64.2555C53.458 62.8844 50.8621 60.5076 49.3302 58.9994L46.5641 56.2113L46.6918 53.3318C46.8194 51.5493 47.1599 49.9039 47.6705 49.0355C48.0961 48.2585 48.4791 47.1158 48.4791 46.4759C48.4791 45.6532 48.8621 45.1505 49.9685 44.602C50.8196 44.1906 51.5855 43.505 51.7132 43.1394C51.8409 42.7737 51.2451 40.5799 50.394 38.2489C48.8195 34.0896 48.777 33.9068 48.7344 27.5994C48.6918 21.3377 48.6493 21.1091 47.3301 18.184C45.0322 13.202 40.5214 9.45412 34.5212 7.53447C31.5849 6.62035 26.7337 6.30041 23.7974 6.84888ZM40.8192 22.3889C39.8405 26.7767 34.8616 30.8445 28.521 32.4442C26.7763 32.9013 25.2443 33.2212 25.2017 33.1298C25.1166 33.0384 25.8826 32.5356 26.9465 31.9871C32.0956 29.2905 36.4787 25.177 39.4149 20.3321C40.5214 18.5039 40.649 18.4125 40.9469 19.2809C41.1171 19.8294 41.0746 21.2005 40.8192 22.3889ZM45.7556 28.9706C45.7981 34.2267 45.8407 34.6381 47.2875 38.2031C48.9472 42.2253 48.9046 42.5452 46.6918 43.1394C45.6705 43.4136 45.5428 43.6879 45.4151 45.5618L45.2875 47.71L43.2874 47.6186C42.1384 47.5729 41.2448 47.6643 41.2448 47.8471C41.2448 48.3499 42.6917 49.7668 43.2449 49.7668C43.9683 49.7668 44.0108 54.3831 43.2874 55.1601C42.9895 55.48 42.181 55.7085 41.4576 55.7085C38.9468 55.7085 32.2232 53.926 29.4997 52.5548L26.7337 51.1836L27.7125 53.0576C28.2657 54.1088 29.4146 55.7999 30.3508 56.7598L31.9679 58.5423L31.0317 62.0616C30.5211 63.9813 30.0104 65.6724 29.9253 65.8095C29.8402 65.9467 28.7763 65.8095 27.5422 65.4439C24.8187 64.6669 21.3718 64.9411 17.9675 66.2209C16.6483 66.7237 15.4567 67.135 15.3716 67.135C15.2865 67.135 16.6483 65.4896 18.4356 63.4328C23.1591 58.0395 25.4145 52.6005 26.1379 44.9219L26.4358 41.6311L24.9039 41.0826C23.5847 40.6256 21.2442 38.3403 21.2442 37.4719C21.2442 37.3347 22.6485 37.1062 24.3081 37.0605C32.5211 36.7863 40.3937 31.7129 43.5002 24.6742C44.6066 22.1147 44.8194 21.8861 45.2449 22.6174C45.5003 23.1202 45.713 25.8625 45.7556 28.9706ZM54.4367 67.5921C54.8623 67.8206 55.3729 68.5976 55.6282 69.2832C56.7346 72.2084 58.2241 79.0186 58.4794 82.0808L58.7347 85.4174H56.6495H54.5644L54.309 83.5434C54.1814 82.5379 53.5431 80.8925 52.9047 79.887C52.1813 78.7443 51.6707 77.2817 51.543 75.8191C51.3728 73.7624 51.4153 73.5338 52.2239 73.5338C52.692 73.5338 53.2877 73.2596 53.5431 72.894C54.3941 71.797 52.6069 70.243 50.6919 70.4258C49.1174 70.563 49.1174 70.6087 48.9897 72.7111C48.9046 73.9452 48.7344 74.905 48.6067 74.905C48.4365 74.905 47.8833 74.448 47.3301 73.8995C45.5428 72.117 46.3088 67.7749 48.4791 67.0436C49.7132 66.6779 53.4154 66.9979 54.4367 67.5921Z" fill="#2c2c2c"/>
</svg>
